<svg width="126" height="126" viewBox="0 0 126 126" version="1.1" xmlns="http://www.w3.org/2000/svg" xmlns:xlink="http://www.w3.org/1999/xlink" xmlns:figma="http://www.figma.com/figma/ns">
<title>Logo</title>
<desc>Created using Figma</desc>
<g id="Canvas" transform="translate(407 -2886)" figma:type="canvas">
<g id="Logo" style="mix-blend-mode:normal;" figma:type="frame">
<g id="Rectangle 3" style="mix-blend-mode:normal;" figma:type="rounded-rectangle">
<use xlink:href="#path0_fill" transform="matrix(0.707107 -0.707107 0.707107 0.707107 -415 2949)" fill="#166639" style="mix-blend-mode:normal;"/>
</g>
<g id="R" style="mix-blend-mode:normal;" filter="url(#filter0_i)" figma:type="text">
<use xlink:href="#path1_fill" transform="translate(-395.289 2899)" fill="#FFFFFF" style="mix-blend-mode:normal;"/>
</g>
</g>
</g>
<defs>
<filter id="filter0_i" filterUnits="userSpaceOnUse" x="-378" y="2931" width="67" height="34" color-interpolation-filters="sRGB">
<feFlood flood-opacity="0" result="BackgroundImageFix"/>
<feBlend mode="normal" in="SourceGraphic" in2="BackgroundImageFix" result="shape"/>
<desc>type="innerShadow" x="0" y="2" size="4" spread="0" color="0,0,0,0.5" blend="normal"</desc>
<feColorMatrix in="SourceAlpha" type="matrix" values="0 0 0 0 0 0 0 0 0 0 0 0 0 0 0 0 0 0 255 0" result="hardAlpha"/>
<feOffset dx="0" dy="2"/>
<feGaussianBlur stdDeviation="2"/>
<feComposite in2="hardAlpha" operator="arithmetic" k2="-1" k3="1"/>
<feColorMatrix type="matrix" values="0 0 0 0 0 0 0 0 0 0 0 0 0 0 0 0 0 0 0.5 0"/>
<feBlend mode="normal" in2="shape" result="effect1_innerShadow"/>
</filter>
<path id="path0_fill" d="M 0 20C 0 8.95431 8.95431 0 20 0L 80 0C 91.0457 0 100 8.95431 100 20L 100 80C 100 91.0457 91.0457 100 80 100L 20 100C 8.95431 100 0 91.0457 0 80L 0 20Z"/>
<path id="path1_fill" d="M 23.1294 61.18C 22.6734 61.18 22.3614 61.168 22.1934 61.144C 22.3614 59.752 23.0934 56.224 24.3894 50.56C 25.7094 44.872 26.3694 41.272 26.3694 39.76C 26.3694 39.472 26.2014 39.1 25.8654 38.644C 25.5294 38.164 25.1934 37.768 24.8574 37.456L 24.3894 36.952L 24.4974 36.376C 27.7854 35.752 31.2654 35.44 34.9374 35.44C 39.3534 35.44 41.5614 37.18 41.5614 40.66C 41.5614 42.364 41.1294 43.924 40.2654 45.34C 39.4254 46.732 38.1054 47.824 36.3054 48.616C 37.6494 53.104 38.8014 56.008 39.7614 57.328C 40.1934 57.88 40.5294 58.156 40.7694 58.156C 41.2014 58.156 41.8734 57.94 42.7854 57.508L 43.2174 57.292L 44.0454 58.624C 43.1574 59.44 42.1254 60.112 40.9494 60.64C 39.7974 61.168 38.7054 61.432 37.6734 61.432C 36.6654 61.432 35.8254 61 35.1534 60.136C 34.5054 59.248 33.9054 57.952 33.3534 56.248C 32.8254 54.544 32.2854 52.36 31.7334 49.696C 30.9654 49.744 30.3774 49.768 29.9694 49.768C 28.7454 55.024 28.0734 58.576 27.9534 60.424C 26.9214 60.928 25.3134 61.18 23.1294 61.18ZM 31.3734 47.32C 32.8134 47.32 33.9414 46.684 34.7574 45.412C 35.5974 44.116 36.0174 42.58 36.0174 40.804C 36.0174 39.868 35.8494 39.112 35.5134 38.536C 35.1774 37.96 34.6734 37.672 34.0014 37.672C 33.7134 37.672 33.3654 37.72 32.9574 37.816C 32.5734 37.888 32.3814 37.936 32.3814 37.96C 31.9974 40.432 31.3734 43.552 30.5094 47.32L 31.3734 47.32ZM 45.4426 61.108L 44.7586 61.108C 44.7586 59.98 45.0946 57.82 45.7666 54.628C 46.4626 51.436 46.8106 49.624 46.8106 49.192C 46.8106 48.4 46.4746 47.56 45.8026 46.672L 45.4786 46.24L 45.5146 45.772C 46.8106 45.412 48.8866 45.232 51.7426 45.232C 52.0786 45.688 52.2466 46.432 52.2466 47.464C 54.4066 45.856 56.1226 45.052 57.3946 45.052C 59.0026 45.052 59.9506 45.88 60.2386 47.536C 60.8866 47.008 61.7266 46.468 62.7586 45.916C 63.8146 45.34 64.7506 45.052 65.5666 45.052C 66.4066 45.052 67.1026 45.328 67.6546 45.88C 68.2066 46.408 68.4826 47.152 68.4826 48.112C 68.4826 49.072 68.2186 50.656 67.6906 52.864C 67.1626 55.072 66.8986 56.56 66.8986 57.328C 66.8986 58.072 67.0066 58.444 67.2226 58.444C 67.3666 58.444 67.8586 58.216 68.6986 57.76L 69.0946 57.544L 69.7426 58.804C 69.1186 59.428 68.2666 60.028 67.1866 60.604C 66.1306 61.156 65.1946 61.432 64.3786 61.432C 62.5786 61.432 61.6786 60.412 61.6786 58.372C 61.6786 57.628 61.9306 56.14 62.4346 53.908C 62.9626 51.652 63.2266 50.188 63.2266 49.516C 63.2266 48.82 63.0226 48.472 62.6146 48.472C 61.9186 48.472 61.1266 48.736 60.2386 49.264C 60.1906 49.744 59.8546 51.376 59.2306 54.16C 58.6306 56.944 58.3306 59.104 58.3306 60.64C 57.6346 60.952 56.0026 61.108 53.4346 61.108C 53.3866 60.844 53.3626 60.208 53.3626 59.2C 53.3626 58.192 53.6386 56.476 54.1906 54.052C 54.7666 51.628 55.0546 50.092 55.0546 49.444C 55.0546 48.796 54.8266 48.472 54.3706 48.472C 53.6506 48.472 52.8586 48.76 51.9946 49.336C 51.9466 49.552 51.7066 50.608 51.2746 52.504C 50.4106 56.296 49.9786 58.996 49.9786 60.604C 49.1386 60.94 47.6266 61.108 45.4426 61.108ZM 73.6801 61.432C 72.8641 61.432 72.1801 61.156 71.6281 60.604C 71.1001 60.052 70.8361 59.284 70.8361 58.3C 70.8361 57.292 71.4241 54.112 72.6001 48.76C 73.8001 43.384 74.4001 39.508 74.4001 37.132L 74.1841 35.548C 76.0561 34.9 77.8081 34.576 79.4401 34.576C 79.6801 34.912 79.8001 35.5 79.8001 36.34C 79.8001 38.26 79.1881 41.98 77.9641 47.5C 76.7641 52.996 76.1641 56.2 76.1641 57.112C 76.1641 58 76.2721 58.444 76.4881 58.444L 79.0081 57.544L 79.6561 58.804C 78.8401 59.452 77.8441 60.052 76.6681 60.604C 75.5161 61.156 74.5201 61.432 73.6801 61.432Z"/>
</defs>
</svg>
